<svg width="38" height="39" viewBox="0 0 38 39" fill="none" xmlns="http://www.w3.org/2000/svg">
<rect x="0.5" y="1.0542" width="37" height="37" rx="18.5" stroke="white" stroke-opacity="0.12"/>
<g clip-path="url(#clip0_2265_20903)">
<g clip-path="url(#clip1_2265_20903)">
<g clip-path="url(#clip2_2265_20903)">
<path opacity="0.7" d="M19.926 17.436H23.726L23.3038 19.1249H19.926V26.7249H18.2372V19.1249H14.8594V17.436H18.2372V15.8552C18.2372 14.3496 18.3942 13.8032 18.6881 13.2526C18.976 12.7086 19.4209 12.2638 19.9649 11.9758C20.5155 11.682 21.0618 11.5249 22.5675 11.5249C23.0083 11.5249 23.395 11.5671 23.726 11.6516V13.2138H22.5675C21.4494 13.2138 21.1091 13.2797 20.762 13.4654C20.5053 13.6022 20.3145 13.7931 20.1777 14.0498C19.9919 14.3969 19.926 14.7372 19.926 15.8552V17.436Z" fill="white" stroke="white" stroke-width="0.8"/>
</g>
</g>
</g>
<defs>
<clipPath id="clip0_2265_20903">
<rect width="11" height="17" fill="white" transform="translate(13.5 11.0542)"/>
</clipPath>
<clipPath id="clip1_2265_20903">
<rect width="11" height="17" fill="white" transform="translate(13.5 11.0542)"/>
</clipPath>
<clipPath id="clip2_2265_20903">
<rect width="11" height="17" fill="white" transform="translate(13.5 11.0542)"/>
</clipPath>
</defs>
</svg>
