<svg width="40" height="39" viewBox="0 0 40 39" fill="none" xmlns="http://www.w3.org/2000/svg">
<rect width="40" height="38.35" rx="19.175" fill="#65717F"/>
<path d="M20 28.35L18.55 27.05C16.8667 25.5333 15.475 24.225 14.375 23.125C13.275 22.025 12.4 21.0375 11.75 20.1625C11.1 19.2875 10.6458 18.4833 10.3875 17.75C10.1292 17.0167 10 16.2667 10 15.5C10 13.9333 10.525 12.625 11.575 11.575C12.625 10.525 13.9333 10 15.5 10C16.3667 10 17.1917 10.1833 17.975 10.55C18.7583 10.9167 19.4333 11.4333 20 12.1C20.5667 11.4333 21.2417 10.9167 22.025 10.55C22.8083 10.1833 23.6333 10 24.5 10C26.0667 10 27.375 10.525 28.425 11.575C29.475 12.625 30 13.9333 30 15.5C30 16.2667 29.8708 17.0167 29.6125 17.75C29.3542 18.4833 28.9 19.2875 28.25 20.1625C27.6 21.0375 26.725 22.025 25.625 23.125C24.525 24.225 23.1333 25.5333 21.45 27.05L20 28.35Z" fill="white"/>
</svg>
