<svg width="38" height="39" viewBox="0 0 38 39" fill="none" xmlns="http://www.w3.org/2000/svg">
<rect x="0.5" y="1.0542" width="37" height="37" rx="18.5" stroke="white" stroke-opacity="0.12"/>
<g clip-path="url(#clip0_2265_20913)">
<g clip-path="url(#clip1_2265_20913)">
<g clip-path="url(#clip2_2265_20913)">
<path opacity="0.7" d="M23.3171 14.6253C23.1339 14.6253 22.9548 14.6796 22.8025 14.7814C22.6502 14.8832 22.5314 15.0278 22.4613 15.1971C22.3912 15.3663 22.3729 15.5526 22.4086 15.7322C22.4443 15.9119 22.5325 16.0769 22.6621 16.2065C22.7917 16.336 22.9567 16.4242 23.1364 16.46C23.316 16.4957 23.5023 16.4774 23.6715 16.4073C23.8408 16.3372 23.9854 16.2184 24.0872 16.0661C24.189 15.9138 24.2433 15.7347 24.2433 15.5515C24.2433 15.3059 24.1458 15.0703 23.972 14.8966C23.7983 14.7229 23.5627 14.6253 23.3171 14.6253ZM26.8677 16.4932C26.8527 15.8528 26.7328 15.2192 26.5126 14.6176C26.3164 14.1028 26.0109 13.6367 25.6173 13.2513C25.235 12.8557 24.7679 12.5522 24.251 12.3637C23.651 12.1369 23.0167 12.0142 22.3754 12.0009C21.5572 11.9546 21.2948 11.9546 19.1953 11.9546C17.0958 11.9546 16.8334 11.9546 16.0152 12.0009C15.3739 12.0142 14.7395 12.1369 14.1395 12.3637C13.6237 12.5541 13.1569 12.8573 12.7733 13.2513C12.3777 13.6336 12.0741 14.1007 11.8857 14.6176C11.6588 15.2176 11.5362 15.8519 11.5229 16.4932C11.4766 17.3114 11.4766 17.5738 11.4766 19.6733C11.4766 21.7729 11.4766 22.0353 11.5229 22.8535C11.5362 23.4948 11.6588 24.1292 11.8857 24.7292C12.0741 25.246 12.3777 25.7132 12.7733 26.0954C13.1569 26.4894 13.6237 26.7926 14.1395 26.983C14.7395 27.2099 15.3739 27.3325 16.0152 27.3458C16.8334 27.3921 17.0958 27.3921 19.1953 27.3921C21.2948 27.3921 21.5572 27.3921 22.3754 27.3458C23.0167 27.3325 23.651 27.2099 24.251 26.983C24.7679 26.7946 25.235 26.491 25.6173 26.0954C26.0127 25.7114 26.3184 25.2449 26.5126 24.7292C26.7328 24.1275 26.8527 23.494 26.8677 22.8535C26.8677 22.0353 26.914 21.7729 26.914 19.6733C26.914 17.5738 26.914 17.3114 26.8677 16.4932ZM25.4783 22.7609C25.4727 23.2509 25.384 23.7363 25.2159 24.1966C25.0926 24.5325 24.8947 24.836 24.637 25.0842C24.3866 25.3394 24.0837 25.5369 23.7493 25.6631C23.2891 25.8312 22.8036 25.9199 22.3136 25.9256C21.5418 25.9642 21.2562 25.9719 19.2262 25.9719C17.1962 25.9719 16.9106 25.9719 16.1387 25.9256C15.6299 25.9351 15.1234 25.8567 14.6412 25.694C14.3215 25.5614 14.0325 25.3643 13.7922 25.1151C13.536 24.8672 13.3405 24.5634 13.221 24.2274C13.0325 23.7606 12.928 23.2641 12.9122 22.7609C12.9122 21.989 12.8659 21.7034 12.8659 19.6733C12.8659 17.6433 12.8659 17.3577 12.9122 16.5858C12.9157 16.0849 13.0071 15.5885 13.1824 15.1193C13.3183 14.7935 13.5269 14.5031 13.7922 14.2702C14.0267 14.0048 14.3165 13.794 14.6412 13.6527C15.1117 13.4829 15.6076 13.3942 16.1078 13.3903C16.8797 13.3903 17.1653 13.344 19.1953 13.344C21.2253 13.344 21.5109 13.344 22.2828 13.3903C22.7728 13.3959 23.2582 13.4846 23.7185 13.6527C24.0692 13.7829 24.384 13.9945 24.637 14.2702C24.89 14.5073 25.0876 14.7972 25.2159 15.1193C25.3875 15.5893 25.4763 16.0855 25.4783 16.5858C25.5169 17.3577 25.5246 17.6433 25.5246 19.6733C25.5246 21.7034 25.5169 21.989 25.4783 22.7609ZM19.1953 15.7136C18.4125 15.7151 17.6477 15.9487 16.9975 16.3847C16.3474 16.8207 15.841 17.4397 15.5425 18.1634C15.244 18.887 15.1667 19.683 15.3203 20.4506C15.474 21.2182 15.8517 21.923 16.4058 22.476C16.9599 23.0291 17.6655 23.4055 18.4334 23.5576C19.2013 23.7098 19.997 23.6308 20.7201 23.3309C21.4432 23.031 22.0612 22.5235 22.4959 21.8725C22.9306 21.2214 23.1627 20.4562 23.1627 19.6733C23.1637 19.1524 23.0617 18.6364 22.8626 18.155C22.6636 17.6736 22.3712 17.2364 22.0025 16.8684C21.6338 16.5004 21.1959 16.2089 20.7142 16.0107C20.2324 15.8126 19.7162 15.7116 19.1953 15.7136ZM19.1953 22.2437C18.6869 22.2437 18.19 22.093 17.7673 21.8106C17.3446 21.5281 17.0152 21.1266 16.8206 20.657C16.6261 20.1873 16.5752 19.6705 16.6744 19.1719C16.7735 18.6733 17.0183 18.2153 17.3778 17.8558C17.7373 17.4964 18.1953 17.2516 18.6939 17.1524C19.1925 17.0532 19.7093 17.1041 20.1789 17.2987C20.6486 17.4932 21.05 17.8226 21.3324 18.2453C21.6148 18.668 21.7656 19.165 21.7656 19.6733C21.7656 20.0109 21.6991 20.3451 21.57 20.657C21.4408 20.9688 21.2514 21.2522 21.0128 21.4908C20.7741 21.7296 20.4908 21.9189 20.1789 22.0481C19.8671 22.1772 19.5329 22.2437 19.1953 22.2437Z" fill="white"/>
</g>
</g>
</g>
<defs>
<clipPath id="clip0_2265_20913">
<rect width="17" height="16" fill="white" transform="translate(10.5 11.5542)"/>
</clipPath>
<clipPath id="clip1_2265_20913">
<rect width="17" height="16" fill="white" transform="translate(10.5 11.5542)"/>
</clipPath>
<clipPath id="clip2_2265_20913">
<rect width="17" height="16" fill="white" transform="translate(10.5 11.5542)"/>
</clipPath>
</defs>
</svg>
