<svg width="17" height="14" viewBox="0 0 17 14" fill="none" xmlns="http://www.w3.org/2000/svg">
<path d="M12.5607 0.260864C11.1556 0.260864 9.80715 0.862269 8.92699 1.81264C8.04684 0.862269 6.69834 0.260864 5.29332 0.260864C2.80628 0.260864 0.852173 2.05765 0.852173 4.34448C0.852173 7.15103 3.59761 9.43786 7.75614 12.9126L8.92699 13.8853L10.0978 12.9052C14.2564 9.43786 17.0018 7.15103 17.0018 4.34448C17.0018 2.05765 15.0477 0.260864 12.5607 0.260864ZM9.00774 11.8064L8.92699 11.8806L8.84624 11.8064C5.00263 8.60628 2.46714 6.49023 2.46714 4.34448C2.46714 2.85953 3.67836 1.74581 5.29332 1.74581C6.53685 1.74581 7.74807 2.48086 8.17603 3.49806H9.68602C10.1059 2.48086 11.3171 1.74581 12.5607 1.74581C14.1756 1.74581 15.3868 2.85953 15.3868 4.34448C15.3868 6.49023 12.8514 8.60628 9.00774 11.8064Z" fill="#5F5F60"/>
</svg>
