<svg width="117" height="46" viewBox="0 0 117 46" fill="none" xmlns="http://www.w3.org/2000/svg">
<path d="M100.437 37.5L114.937 23M114.937 23V34.0882M114.937 23H103.848" stroke="#052E70" stroke-width="2.55882"/>
<path d="M22.7695 17.1953C22.3138 15.2292 21.2005 13.8555 19.4297 13.0742C18.4401 12.6445 17.3398 12.4297 16.1289 12.4297C13.8112 12.4297 11.9036 13.3086 10.4062 15.0664C8.92188 16.8112 8.17969 19.4414 8.17969 22.957C8.17969 26.4987 8.98698 29.0052 10.6016 30.4766C12.2161 31.9479 14.0521 32.6836 16.1094 32.6836C18.1276 32.6836 19.7812 32.1042 21.0703 30.9453C22.3594 29.7734 23.1536 28.2435 23.4531 26.3555H16.793V21.5508H28.7852V37H24.8008L24.1953 33.4062C23.0365 34.7734 21.9948 35.737 21.0703 36.2969C19.4818 37.2734 17.5286 37.7617 15.2109 37.7617C11.3958 37.7617 8.27083 36.4401 5.83594 33.7969C3.29688 31.1406 2.02734 27.5078 2.02734 22.8984C2.02734 18.237 3.3099 14.5 5.875 11.6875C8.4401 8.875 11.832 7.46875 16.0508 7.46875C19.7096 7.46875 22.6458 8.39974 24.8594 10.2617C27.0859 12.1107 28.362 14.4219 28.6875 17.1953H22.7695ZM53.9023 17.1953C53.4466 15.2292 52.3333 13.8555 50.5625 13.0742C49.5729 12.6445 48.4727 12.4297 47.2617 12.4297C44.944 12.4297 43.0365 13.3086 41.5391 15.0664C40.0547 16.8112 39.3125 19.4414 39.3125 22.957C39.3125 26.4987 40.1198 29.0052 41.7344 30.4766C43.349 31.9479 45.1849 32.6836 47.2422 32.6836C49.2604 32.6836 50.9141 32.1042 52.2031 30.9453C53.4922 29.7734 54.2865 28.2435 54.5859 26.3555H47.9258V21.5508H59.918V37H55.9336L55.3281 33.4062C54.1693 34.7734 53.1276 35.737 52.2031 36.2969C50.6146 37.2734 48.6615 37.7617 46.3438 37.7617C42.5286 37.7617 39.4036 36.4401 36.9688 33.7969C34.4297 31.1406 33.1602 27.5078 33.1602 22.8984C33.1602 18.237 34.4427 14.5 37.0078 11.6875C39.5729 8.875 42.9648 7.46875 47.1836 7.46875C50.8424 7.46875 53.7786 8.39974 55.9922 10.2617C58.2188 12.1107 59.4948 14.4219 59.8203 17.1953H53.9023Z" fill="#052E70"/>
<path d="M70.6228 28.3633V29.8926H68.0388V37H66.2224V29.8926H63.6267V28.3633H70.6228ZM78.07 29.8926H73.4997V31.7266H77.695V33.2266H73.4997V35.4473H78.281V37H71.736V28.3633H78.07V29.8926ZM79.3122 32.752C79.3122 31.2441 79.7165 30.082 80.5251 29.2656C81.2282 28.5547 82.1228 28.1992 83.2087 28.1992C84.6618 28.1992 85.7243 28.6758 86.3962 29.6289C86.7673 30.1641 86.9665 30.7012 86.9939 31.2402H85.1892C85.072 30.8262 84.9216 30.5137 84.738 30.3027C84.4099 29.9277 83.9235 29.7402 83.279 29.7402C82.6228 29.7402 82.1052 30.0059 81.7263 30.5371C81.3474 31.0645 81.1579 31.8125 81.1579 32.7812C81.1579 33.75 81.3571 34.4766 81.7556 34.9609C82.1579 35.4414 82.6677 35.6816 83.2849 35.6816C83.9177 35.6816 84.4001 35.4746 84.7321 35.0605C84.9157 34.8379 85.0681 34.5039 85.1892 34.0586H86.9763C86.82 35 86.4196 35.7656 85.7751 36.3555C85.1345 36.9453 84.3122 37.2402 83.3083 37.2402C82.0661 37.2402 81.0896 36.8418 80.3786 36.0449C79.6677 35.2441 79.3122 34.1465 79.3122 32.752ZM88.3474 37V28.3633H90.1345V31.6562H93.5095V28.3633H95.3025V37H93.5095V33.1445H90.1345V37H88.3474Z" fill="#052E70"/>
</svg>
