<svg width="34" height="35" viewBox="0 0 34 35" fill="none" xmlns="http://www.w3.org/2000/svg">
<path d="M8.90182 7.5415L6.12 4.7625L3.94091 6.95155L6.70727 9.73054L8.90182 7.5415ZM0 16.3287H4.63636V19.4337H0V16.3287ZM15.4545 0.881226H18.5455V5.46113H15.4545V0.881226ZM27.88 4.75474L30.056 6.93913L27.2896 9.71812L25.1152 7.53218L27.88 4.75474ZM25.0982 28.221L27.8645 31.0155L30.0436 28.8264L27.2618 26.0474L25.0982 28.221ZM29.3636 16.3287H34V19.4337H29.3636V16.3287ZM17 8.56616C11.8845 8.56616 7.72727 12.7424 7.72727 17.8812C7.72727 23.02 11.8845 27.1963 17 27.1963C22.1155 27.1963 26.2727 23.02 26.2727 17.8812C26.2727 12.7424 22.1155 8.56616 17 8.56616ZM17 24.0913C13.5845 24.0913 10.8182 21.3123 10.8182 17.8812C10.8182 14.4502 13.5845 11.6712 17 11.6712C20.4155 11.6712 23.1818 14.4502 23.1818 17.8812C23.1818 21.3123 20.4155 24.0913 17 24.0913ZM15.4545 30.3013H18.5455V34.8812H15.4545V30.3013ZM3.94091 28.8109L6.12 30.9999L8.88636 28.2054L6.70727 26.0164L3.94091 28.8109Z" fill="#4E4E4F"/>
</svg>
