<svg width="38" height="39" viewBox="0 0 38 39" fill="none" xmlns="http://www.w3.org/2000/svg">
<rect x="0.5" y="1.0542" width="37" height="37" rx="18.5" stroke="white" stroke-opacity="0.12"/>
<g clip-path="url(#clip0_2265_20908)">
<g clip-path="url(#clip1_2265_20908)">
<g clip-path="url(#clip2_2265_20908)">
<path opacity="0.7" d="M26.0329 17.104C26.0329 17.104 25.8926 16.1106 25.4608 15.6745C24.9141 15.1004 24.3028 15.0976 24.0225 15.0638C22.015 14.9175 19.0009 14.9175 19.0009 14.9175H18.9953C18.9953 14.9175 15.9812 14.9175 13.9736 15.0638C13.6933 15.0976 13.082 15.1004 12.5353 15.6745C12.1035 16.1106 11.9661 17.104 11.9661 17.104C11.9661 17.104 11.8203 18.2718 11.8203 19.4368V20.5287C11.8203 21.6937 11.9633 22.8615 11.9633 22.8615C11.9633 22.8615 12.1035 23.8548 12.5325 24.291C13.0792 24.8651 13.797 24.8454 14.1166 24.9073C15.2662 25.017 18.9981 25.0508 18.9981 25.0508C18.9981 25.0508 22.015 25.0452 24.0225 24.9017C24.3028 24.8679 24.9141 24.8651 25.4608 24.291C25.8926 23.8548 26.0329 22.8615 26.0329 22.8615C26.0329 22.8615 26.1758 21.6965 26.1758 20.5287V19.4368C26.1758 18.2718 26.0329 17.104 26.0329 17.104ZM17.5149 21.8541V17.8047L21.3925 19.8364L17.5149 21.8541Z" fill="white"/>
</g>
</g>
</g>
<defs>
<clipPath id="clip0_2265_20908">
<rect width="16" height="11" fill="white" transform="translate(11 14.0542)"/>
</clipPath>
<clipPath id="clip1_2265_20908">
<rect width="16" height="11" fill="white" transform="translate(11 14.0542)"/>
</clipPath>
<clipPath id="clip2_2265_20908">
<rect width="16" height="11" fill="white" transform="translate(11 14.0542)"/>
</clipPath>
</defs>
</svg>
